# xmcd CD database file
#
# Track frame offsets:
#	150
#	16310
#	34608
#	49268
#	60168
#	76313
#	90283
#	109078
#	126415
#	140590
#	158508
#	172383
#
# Disc length: 2458 seconds
#
# Revision: 5
# Processed by: cddbd v1.5PL3 Copyright (c) Steve Scherf et al.
# Submitted via: jetAudio 5
#
DISCID=9309980c
DTITLE=Julio Iglesias - America
DYEAR=1900
DGENRE=
TTITLE0=Caminito
TTITLE1=Recuerdos de ipacarai
TTITLE2=Historia de un amor
TTITLE3=Obsesion
TTITLE4=Sombras
TTITLE5=Mañana de carneval
TTITLE6=Jurame
TTITLE7=Guantanamera
TTITLE8=Vaya con Dios
TTITLE9=Moliendo cafe
TTITLE10=Ay, ay, ay
TTITLE11=Alma llanera
EXTD=Production: Julio Iglesias/Arrangements and Musical Direction: Rafa
EXTD=el Ferro/(P) 1978 Sony Music Entertainment Gramofoonplaten B.V./
EXTD=(C) 1992 Sony Music Entertainment (UK) Ltd.
EXTT0=
EXTT1=
EXTT2=
EXTT3=
EXTT4=
EXTT5=
EXTT6=
EXTT7=
EXTT8=
EXTT9=
EXTT10=
EXTT11=
PLAYORDER=
